<svg width="4" height="8" viewBox="0 0 4 8" fill="none" xmlns="http://www.w3.org/2000/svg">
<g clip-path="url(#clip0_24_677)">
<path d="M3.7999 3.45713L0.799902 0.457129C0.599902 0.257129 0.299902 0.257129 0.0999023 0.457129C-9.76548e-05 0.657129 -9.76548e-05 1.05713 0.0999023 1.25713L2.6999 3.85713L0.0999023 6.45713C-9.76548e-05 6.65713 -9.76548e-05 6.95713 0.0999023 7.15713C0.199902 7.25713 0.399902 7.35713 0.499902 7.35713C0.599902 7.35713 0.799902 7.25713 0.899902 7.25713L3.8999 4.25713C3.8999 4.15713 3.9999 3.95713 3.9999 3.85713C3.9999 3.75713 3.8999 3.55713 3.7999 3.45713Z" fill="black"/>
</g>
<defs>
<clipPath id="clip0_24_677">
<rect width="4" height="7" fill="white" transform="translate(0 0.356934)"/>
</clipPath>
</defs>
</svg>
